<svg width="263" height="262" viewBox="0 0 263 262" fill="none" xmlns="http://www.w3.org/2000/svg">
<path d="M170.534 132.008L217.375 85.7839C211 83.1658 203.449 78.8645 196.308 71.8175C189.166 64.7694 184.807 57.3169 182.154 51.0251L135.313 97.2501C131.657 100.858 129.829 102.661 128.258 104.65C126.403 106.996 124.814 109.534 123.517 112.22C122.417 114.496 121.6 116.916 119.965 121.756L111.345 147.277C110.54 149.658 111.168 152.284 112.967 154.06C114.766 155.835 117.427 156.455 119.84 155.661L145.701 147.153C150.606 145.54 153.058 144.734 155.365 143.649C158.086 142.369 160.659 140.8 163.036 138.97C165.051 137.419 166.879 135.615 170.534 132.008Z" fill="black" stroke="black" stroke-width="0.00091"/>
<path d="M230.372 72.9574C240.098 63.3592 240.098 47.7975 230.372 38.1994C220.646 28.6012 204.876 28.6012 195.15 38.1994L189.533 43.7434C189.61 43.9726 189.689 44.205 189.772 44.4404C191.831 50.2976 195.717 57.9758 203.025 65.1884C210.334 72.4009 218.114 76.2351 224.05 78.2671C224.288 78.3484 224.522 78.4268 224.753 78.5024L230.372 72.9574Z" fill="black" stroke="black" stroke-width="0.00091"/>
<path d="M122 46L81.1355 46C69.1876 46 63.2093 46 58.6459 48.3252C54.6317 50.3705 51.3705 53.6317 49.3252 57.6459C47 62.2093 47 68.1876 47 80.1355L47 182.535C47 194.483 47 200.454 49.3252 205.018C51.3705 209.031 54.6317 212.299 58.6459 214.343C63.2048 216.667 69.1759 216.667 81.1004 216.667L183.566 216.667C195.491 216.667 201.453 216.667 206.012 214.343C210.026 212.299 213.299 209.028 215.343 205.014C217.667 200.455 217.667 194.491 217.667 182.566L217.667 152.667" stroke="black" stroke-width="47" stroke-linecap="round" stroke-linejoin="round"/>
<rect x="152" y="193" width="34" height="69" fill="black"/>
<rect x="87" y="193" width="34" height="69" fill="black"/>
<rect x="87" width="34" height="69" fill="black"/>
<rect y="187" width="34" height="69" transform="rotate(-90 0 187)" fill="black"/>
<rect x="194" y="187" width="34" height="69" transform="rotate(-90 194 187)" fill="black"/>
<rect y="124" width="34" height="69" transform="rotate(-90 0 124)" fill="black"/>
</svg>
