<svg width="350" height="350" viewBox="0 0 350 350" fill="none" xmlns="http://www.w3.org/2000/svg">
<rect width="350" height="350" rx="30" fill="white"/>
<path d="M214.534 176.008L261.375 129.784C255 127.166 247.449 122.865 240.308 115.818C233.166 108.769 228.807 101.317 226.154 95.0251L179.313 141.25C175.657 144.858 173.829 146.661 172.258 148.65C170.403 150.996 168.814 153.534 167.517 156.22C166.417 158.496 165.6 160.916 163.965 165.756L155.345 191.277C154.54 193.658 155.168 196.284 156.967 198.06C158.766 199.835 161.427 200.455 163.84 199.661L189.701 191.153C194.606 189.54 197.058 188.734 199.365 187.649C202.086 186.369 204.659 184.8 207.036 182.97C209.051 181.419 210.879 179.615 214.534 176.008Z" fill="black" stroke="black" stroke-width="0.00091"/>
<path d="M274.372 116.957C284.098 107.359 284.098 91.7975 274.372 82.1994C264.646 72.6012 248.876 72.6012 239.15 82.1994L233.533 87.7434C233.61 87.9726 233.689 88.205 233.772 88.4404C235.831 94.2976 239.717 101.976 247.025 109.188C254.334 116.401 262.114 120.235 268.05 122.267C268.288 122.348 268.522 122.427 268.753 122.502L274.372 116.957Z" fill="black" stroke="black" stroke-width="0.00091"/>
<path d="M166 90L125.135 90C113.188 90 107.209 90 102.646 92.3252C98.6317 94.3705 95.3705 97.6317 93.3252 101.646C91 106.209 91 112.188 91 124.135L91 226.535C91 238.483 91 244.454 93.3252 249.018C95.3705 253.031 98.6317 256.299 102.646 258.343C107.205 260.667 113.176 260.667 125.1 260.667H227.566C239.491 260.667 245.453 260.667 250.012 258.343C254.026 256.299 257.299 253.028 259.343 249.014C261.667 244.455 261.667 238.491 261.667 226.566V196.667" stroke="black" stroke-width="47" stroke-linecap="round" stroke-linejoin="round"/>
<rect x="196" y="237" width="34" height="69" fill="black"/>
<rect x="131" y="237" width="34" height="69" fill="black"/>
<rect x="131" y="44" width="34" height="69" fill="black"/>
<rect x="44" y="231" width="34" height="69" transform="rotate(-90 44 231)" fill="black"/>
<rect x="238" y="231" width="34" height="69" transform="rotate(-90 238 231)" fill="black"/>
<rect x="44" y="168" width="34" height="69" transform="rotate(-90 44 168)" fill="black"/>
</svg>
