<svg width="266" height="262" viewBox="0 0 266 262" fill="none" xmlns="http://www.w3.org/2000/svg">
<rect x="152" y="193" width="34" height="69" fill="#4B85DC"/>
<rect x="87" y="193" width="34" height="69" fill="#4B85DC"/>
<rect x="87" width="34" height="69" fill="#4B85DC"/>
<rect y="187" width="34" height="69" transform="rotate(-90 0 187)" fill="#4B85DC"/>
<path d="M172.925 129.008L220.236 82.7832C213.796 80.165 206.17 75.8638 198.958 68.8168C191.744 61.7687 187.341 54.3162 184.661 48.0244L137.351 94.2494C133.659 97.8569 131.813 99.6607 130.225 101.649C128.352 103.995 126.747 106.533 125.437 109.219C124.326 111.496 123.501 113.916 121.85 118.755L113.143 144.276C112.33 146.658 112.965 149.283 114.781 151.059C116.598 152.834 119.286 153.454 121.723 152.66L147.844 144.153C152.797 142.539 155.274 141.733 157.604 140.648C160.353 139.368 162.951 137.799 165.352 135.969C167.387 134.418 169.234 132.614 172.925 129.008Z" fill="#4B85DC" stroke="#4B85DC" stroke-width="0.00091"/>
<path d="M233.363 69.9566C243.187 60.3585 243.187 44.7968 233.363 35.1986C223.539 25.6005 207.612 25.6005 197.788 35.1986L192.114 40.7426C192.192 40.9719 192.272 41.2043 192.356 41.4397C194.436 47.2969 198.36 54.9751 205.742 62.1876C213.124 69.4002 220.983 73.2343 226.978 75.2664C227.218 75.3477 227.454 75.4261 227.688 75.5016L233.363 69.9566Z" fill="#4B85DC" stroke="#4B85DC" stroke-width="0.00091"/>
<path d="M123.905 46H82.6305C70.5629 46 64.5246 46 59.9155 48.3252C55.861 50.3705 52.5671 53.6317 50.5014 57.6459C48.1528 62.2093 48.1528 68.1876 48.1528 80.1355V182.535C48.1528 194.483 48.1528 200.454 50.5014 205.018C52.5671 209.031 55.861 212.299 59.9155 214.343C64.5201 216.667 70.551 216.667 82.5951 216.667H186.088C198.132 216.667 204.155 216.667 208.759 214.343C212.813 212.299 216.119 209.028 218.184 205.014C220.53 200.455 220.53 194.491 220.53 182.566V152.667" stroke="#4B85DC" stroke-width="47" stroke-linecap="round" stroke-linejoin="round"/>
<rect x="197" y="187" width="34" height="69" transform="rotate(-90 197 187)" fill="#4B85DC"/>
<rect y="124" width="34" height="69" transform="rotate(-90 0 124)" fill="#4B85DC"/>
</svg>
