<svg width="350" height="350" viewBox="0 0 350 350" fill="none" xmlns="http://www.w3.org/2000/svg">
<rect width="350" height="350" rx="30" fill="white"/>
<rect x="201" y="237" width="34" height="69" fill="#4B85DC"/>
<rect x="136" y="237" width="34" height="69" fill="#4B85DC"/>
<rect x="136" y="44" width="34" height="69" fill="#4B85DC"/>
<rect x="49" y="231" width="34" height="69" transform="rotate(-90 49 231)" fill="#4B85DC"/>
<path d="M221.925 173.008L269.236 126.783C262.796 124.165 255.17 119.864 247.958 112.817C240.744 105.769 236.341 98.3162 233.661 92.0244L186.351 138.249C182.659 141.857 180.813 143.661 179.225 145.649C177.352 147.995 175.747 150.533 174.437 153.219C173.326 155.496 172.501 157.916 170.85 162.755L162.143 188.276C161.33 190.658 161.965 193.283 163.781 195.059C165.598 196.834 168.286 197.454 170.723 196.66L196.844 188.153C201.797 186.539 204.274 185.733 206.604 184.648C209.353 183.368 211.951 181.799 214.352 179.969C216.387 178.418 218.234 176.614 221.925 173.008Z" fill="#4B85DC" stroke="#4B85DC" stroke-width="0.00091"/>
<path d="M282.363 113.957C292.187 104.358 292.187 88.7968 282.363 79.1986C272.539 69.6005 256.612 69.6005 246.788 79.1986L241.114 84.7426C241.192 84.9719 241.272 85.2043 241.356 85.4397C243.436 91.2969 247.36 98.9751 254.742 106.188C262.124 113.4 269.983 117.234 275.978 119.266C276.218 119.348 276.454 119.426 276.688 119.502L282.363 113.957Z" fill="#4B85DC" stroke="#4B85DC" stroke-width="0.00091"/>
<path d="M172.905 90H131.631C119.563 90 113.525 90 108.915 92.3252C104.861 94.3705 101.567 97.6317 99.5014 101.646C97.1528 106.209 97.1528 112.188 97.1528 124.135V226.535C97.1528 238.483 97.1528 244.454 99.5014 249.018C101.567 253.031 104.861 256.299 108.915 258.343C113.52 260.667 119.551 260.667 131.595 260.667H235.088C247.132 260.667 253.155 260.667 257.759 258.343C261.813 256.299 265.119 253.028 267.184 249.014C269.53 244.455 269.53 238.491 269.53 226.566V196.667" stroke="#4B85DC" stroke-width="47" stroke-linecap="round" stroke-linejoin="round"/>
<rect x="246" y="231" width="34" height="69" transform="rotate(-90 246 231)" fill="#4B85DC"/>
<rect x="49" y="168" width="34" height="69" transform="rotate(-90 49 168)" fill="#4B85DC"/>
</svg>
